# xmcd
#
# Track frame offsets:
#	150
#	10498
#	25583
#	40770
#	53798
#	67755
#	77378
#	96448
#	108070
#	123450
#	136400
#	152163
#	163315
#	178610
#	194228
#	208075
#	213075
#	225783
#	235238
#	252133
#	260270
#	273023
#
# Disc length: 3742 seconds
#
# Revision: 0
# Processed by: cddbd v1.5.2PL0 Copyright (c) Steve Scherf et al.
# Submitted via: EasyCDDAExtractor 10.0.2.1
#
DISCID=1f0e9c16
DTITLE=Various Artist - Tennessee Blues (2)
DYEAR=1900
DGENRE=
TTITLE0=Hammie Nixon - You're so fine
TTITLE1=Hammie Nixon - My Babe
TTITLE2=Hammie Nixon - But someday Baby
TTITLE3=Hammie Nixon - Yeller Yams
TTITLE4=Hammie Nixon - Yeller Yams
TTITLE5=Hammie Nixon - Somebody done changed that little Lock on my Door 
TTITLE6=Hammie Nixon - Sugar Mama
TTITLE7=Hammie Nixon - Nix's Boogie
TTITLE8=Hammie Nixon - Sweet old kokomo
TTITLE9=Hammie Nixon - You know i don't want no Women
TTITLE10=Hammie Nixon - Sweet old kokomo
TTITLE11=Hammie Nixon - So long
TTITLE12=Hammie Nixon - She keeps me worried and bothered all the time
TTITLE13=Hammie Nixon - Holy Spirit don't you leave me
TTITLE14=Sleepy John Estes - Lord have mercy
TTITLE15=Sleepy John Estes - Clean that Home
TTITLE16=Sleepy John Estes - When your loose your eyesight
TTITLE17=Sleepy John Estes - I wanna tear it all the time
TTITLE18=Sleepy John Estes - Poor man's Friend (T-Model)
TTITLE19=Sleepy John Estes - I'm Twist
TTITLE20=Sleepy John Estes - Broke and Hungry
TTITLE21=Sleepy John Estes - Kansas City Blues
EXTD=
EXTT0=
EXTT1=
EXTT2=
EXTT3=
EXTT4=
EXTT5=
EXTT6=
EXTT7=
EXTT8=
EXTT9=
EXTT10=
EXTT11=
EXTT12=
EXTT13=
EXTT14=
EXTT15=
EXTT16=
EXTT17=
EXTT18=
EXTT19=
EXTT20=
EXTT21=
PLAYORDER=
